<svg xmlns="http://www.w3.org/2000/svg" width="24" height="24" viewBox="0 0 24 24"><title>segmentation</title><g fill="#ffffff"><path data-color="color-2" d="M23,6h-2c-0.553,0-1-0.447-1-1s0.447-1,1-1h2c0.553,0,1,0.447,1,1S23.553,6,23,6z"></path> <path fill="#ffffff" d="M17,6H1C0.447,6,0,5.553,0,5s0.447-1,1-1h16c0.553,0,1,0.447,1,1S17.553,6,17,6z"></path> <path data-color="color-2" d="M3,13H1c-0.553,0-1-0.447-1-1s0.447-1,1-1h2c0.553,0,1,0.447,1,1S3.553,13,3,13z"></path> <path fill="#ffffff" d="M23,13H7c-0.553,0-1-0.447-1-1s0.447-1,1-1h16c0.553,0,1,0.447,1,1S23.553,13,23,13z"></path> <path data-color="color-2" d="M23,20h-2c-0.553,0-1-0.447-1-1s0.447-1,1-1h2c0.553,0,1,0.447,1,1S23.553,20,23,20z"></path> <path fill="#ffffff" d="M17,20H1c-0.553,0-1-0.447-1-1s0.447-1,1-1h16c0.553,0,1,0.447,1,1S17.553,20,17,20z"></path></g></svg>